<svg height="512" viewBox="0 0 60 60" width="512" xmlns="http://www.w3.org/2000/svg"><g id="Page-1" fill="none" fill-rule="evenodd"><g id="028---Calorie-Counting" fill="rgb(0,0,0)" fill-rule="nonzero" transform="translate(-1)"><path id="Shape" d="m48.271 24.287c.2074862.505671.7825371.7510649 1.2911876.5509939.5086504-.200071.7624254-.7714728.5698124-1.2829939-3.846-9.789-13.4-15.183-23.252-13.126-.5406868.1132184-.8872184.6433132-.774 1.184s.6433132.8872184 1.184.774c7.257-1.519 16.917 1.557 20.981 11.9z"/><path id="Shape" d="m21 55c2.209139 0 4-1.790861 4-4 0-29 0-15.046 0-19v-21c0-1.1045695-.8954305-2-2-2-4.43 0-6 4.187-6 16v26c0 2.209139 1.790861 4 4 4zm0-2c-1.1045695 0-2-.8954305-2-2v-18h4v18c0 1.1045695-.8954305 2-2 2zm2-42c0 21.956.019 18.632-.045 20h-3.955v-6c0-14 2.5-14 4-14z"/><path id="Shape" d="m58.362 50.135c-.4771245-.2735823-1.0856239-.1105116-1.362.365-2.6811195 4.6417735-7.6345463 7.5010008-12.995 7.5010008s-10.3138805-2.8592273-12.995-7.5010008c-.2843876-.4596821-.882589-.61017-1.3506397-.3397768s-.6365131.8637835-.3803603 1.3397768c1.4757571 2.5392332 3.582051 4.6544827 6.115 6.141-8.0318917 1.2958656-16.2282113-.9935193-22.426-6.264.058-.611.037 2.165.037-23.8 1.8209544-.7928309 2.9975604-2.5909363 2.995-4.577v-11c-.0008847-.8953435-.4016309-1.7434968-1.0927404-2.31271419-.6911096-.56921734-1.6003409-.7999985-2.4792596-.62928581 5.5987895-4.97378781 12.9583321-7.49458832 20.4308423-6.99799983s14.4337661 3.96908307 19.3251577 9.63999983c5.3960604 6.2305042 7.7624687 14.5273916 6.465 22.667-3.0704039-5.2105581-8.6771085-8.3983875-14.7249686-8.372242-6.0478602.0261456-11.6267931 3.2623317-14.6520314 8.499242-.2561528.4759933-.0876904 1.0693836.3803603 1.3397768s1.0662521.1199053 1.3506397-.3397768c2.9078648-5.0405546 8.4686653-7.9444526 14.2668236-7.4502585 5.7981584.4941941 10.7873016 4.2972948 12.8001764 9.7572585.1526352.4053694.548898.666385.981598.6465719.4327001-.0198131.8034512-.3159499.918402-.7335719 3.5023609-13.1690117-2.3158123-27.0436553-14.1634962-33.77580117-11.847684-6.73214585-26.7450638-4.6285898-36.2655038 5.12080117-.06-.011-.121-.03-.182-.037-.21851735-.02977677-.43989944-.03212832-.659-.007-.63648987.06469044-1.2351328.33297506-1.707.765-.87831363-.78772617-2.13734737-.98619967-3.21539848-.50687392-1.0780511.47932575-1.77409556 1.54707092-1.77760152 2.72687392v10.212c-2.05074036 7.6791824-.97185004 15.8582498 3 22.743v6.045c.0011531 1.6169625.97570796 3.0741968 2.46965154 3.6928256 1.49394357.6186287 3.21340686.2769633 4.35734846-.8658256.1395313-.1460862.2682069-.3021681.385-.467 7.3484304 5.9434794 17.0766116 8.0575757 26.229 5.7 7.699597 2.6613748 16.2052525-.5085909 20.285-7.56.2757855-.4775341.112943-1.0881935-.364-1.365zm-54.362-38.135c0-.5522847.44771525-1 1-1s1 .4477153 1 1v8c0 .5522847.44771525 1 1 1s1-.4477153 1-1v-8c.00770083-.5221272.40885164-.9539365.929-1h.165c.51281216.0535412.90317758.4844081.906 1v8c0 .5522847.4477153 1 1 1s1-.4477153 1-1v-8c.0034062-.3856682.2282972-.7350008.577955-.8977614.3496577-.1627607.7617482-.1099339 1.059045.1357614.0241531.0239521.0495198.0466487.076.068.1854514.1830903.2889672.4334037.287.694v11c0 1.6568542-1.3431458 3-3 3h-4c-1.65685425 0-3-1.3431458-3-3zm-.754 14.286c.48031022.5573237 1.0797516.999557 1.754 1.294v12.81c-1.79373736-4.4707446-2.39805434-9.330087-1.754-14.104zm5.754 26.714c-1.1045695 0-2-.8954305-2-2v-23h4v23c0 1.1045695-.8954305 2-2 2z"/><path id="Shape" d="m35.781 38.375c-.1657145-.2072013-.4069781-.3400545-.670678-.3693128-.2636998-.0292583-.5282179.0474769-.735322.2133128l-3.375 2.7v-1.919c0-.5522847-.4477153-1-1-1s-1 .4477153-1 1v8c0 .5522847.4477153 1 1 1s1-.4477153 1-1v-1.919l3.375 2.7c.2790244.223291.655978.2807626.9888658.1507659.3328879-.1299968.5711366-.4277123.625-.781.0538635-.3532878-.0848414-.7084749-.3638658-.9317659l-4.025-3.219 4.024-3.219c.2073518-.1655696.3403985-.406761.369845-.6704672.0294466-.2637061-.0471215-.528304-.212845-.7355328z"/><path id="Shape" d="m40 40h1c.5522847 0 1 .4477153 1 1s.4477153 1 1 1 1-.4477153 1-1c0-1.6568542-1.3431458-3-3-3h-1c-1.6568542 0-3 1.3431458-3 3v4c0 1.6568542 1.3431458 3 3 3h1c1.6568542 0 3-1.3431458 3-3 0-.5522847-.4477153-1-1-1s-1 .4477153-1 1-.4477153 1-1 1h-1c-.5522847 0-1-.4477153-1-1v-4c0-.5522847.4477153-1 1-1z"/><path id="Shape" d="m49 38c-.4171213-.0002605-.7905905.2584177-.937.649l-3 8c-.125043.3347579-.0619962.7107965.1653911.9864658s.5845697.4090886.937.35c.3524303-.0590885.6465659-.3017079.7716089-.6364658l.506-1.349h3.114l.506 1.351c.1932997.5174908.7695092.7802996 1.287.5869999.5174908-.1932996.7802996-.7695091.587-1.2869999l-3-8c-.1457526-.3913699-.5193707-.6509487-.937-.651zm-.807 6 .807-2.152.807 2.152z"/><path id="Shape" d="m60 46h-4v-7c0-.5522847-.4477153-1-1-1s-1 .4477153-1 1v8c0 .5522847.4477153 1 1 1h5c.5522847 0 1-.4477153 1-1s-.4477153-1-1-1z"/></g></g></svg>